<svg xmlns="http://www.w3.org/2000/svg" xmlns:xlink="http://www.w3.org/1999/xlink" contentStyleType="text/css" data-diagram-type="SEQUENCE" height="397px" preserveAspectRatio="none" style="width:575px;height:397px;background:#FFFFFF;" version="1.1" viewBox="0 0 575 397" width="575px" zoomAndPan="magnify"><defs/><g><g><title>Participant</title><rect fill="#000000" fill-opacity="0.00000" height="232.4609" width="8" x="41.0723" y="82.6094"/><line style="stroke:#181818;stroke-width:0.5;stroke-dasharray:5,5;" x1="45" x2="45" y1="82.6094" y2="315.0703"/></g><g><title>Actor</title><rect fill="#000000" fill-opacity="0.00000" height="232.4609" width="8" x="112.7559" y="82.6094"/><line style="stroke:#181818;stroke-width:0.5;stroke-dasharray:5,5;" x1="116.418" x2="116.418" y1="82.6094" y2="315.0703"/></g><g><title>Boundary</title><rect fill="#000000" fill-opacity="0.00000" height="232.4609" width="8" x="175.0591" y="82.6094"/><line style="stroke:#181818;stroke-width:0.5;stroke-dasharray:5,5;" x1="178.0938" x2="178.0938" y1="82.6094" y2="315.0703"/></g><g><title>Control</title><rect fill="#000000" fill-opacity="0.00000" height="232.4609" width="8" x="243.5898" y="82.6094"/><line style="stroke:#181818;stroke-width:0.5;stroke-dasharray:5,5;" x1="247.0244" x2="247.0244" y1="82.6094" y2="315.0703"/></g><g><title>Entity</title><rect fill="#000000" fill-opacity="0.00000" height="232.4609" width="8" x="299.6621" y="82.6094"/><line style="stroke:#181818;stroke-width:0.5;stroke-dasharray:5,5;" x1="303.1553" x2="303.1553" y1="82.6094" y2="315.0703"/></g><g><title>Database</title><rect fill="#000000" fill-opacity="0.00000" height="232.4609" width="8" x="363.1343" y="82.6094"/><line style="stroke:#181818;stroke-width:0.5;stroke-dasharray:5,5;" x1="366.1689" x2="366.1689" y1="82.6094" y2="315.0703"/></g><g><title>Collections</title><rect fill="#000000" fill-opacity="0.00000" height="232.4609" width="8" x="449.3374" y="82.6094"/><line style="stroke:#181818;stroke-width:0.5;stroke-dasharray:5,5;" x1="453.0996" x2="453.0996" y1="82.6094" y2="315.0703"/></g><g><title>Queue</title><rect fill="#000000" fill-opacity="0.00000" height="232.4609" width="8" x="533.5923" y="82.6094"/><line style="stroke:#181818;stroke-width:0.5;stroke-dasharray:5,5;" x1="537.5752" x2="537.5752" y1="82.6094" y2="315.0703"/></g><g class="participant participant-head" data-participant="Foo"><rect fill="#E2E2F0" height="31.6094" rx="2.5" ry="2.5" style="stroke:#181818;stroke-width:0.5;" width="80.1445" x="5" y="50"/><text fill="#000000" font-family="sans-serif" font-size="14" lengthAdjust="spacing" textLength="66.1445" x="12" y="71.5332">Participant</text></g><g class="participant participant-tail" data-participant="Foo"><rect fill="#E2E2F0" height="31.6094" rx="2.5" ry="2.5" style="stroke:#181818;stroke-width:0.5;" width="80.1445" x="5" y="314.0703"/><text fill="#000000" font-family="sans-serif" font-size="14" lengthAdjust="spacing" textLength="66.1445" x="12" y="335.6035">Participant</text></g><g class="participant participant-head" data-participant="Foo1"><text fill="#000000" font-family="sans-serif" font-size="14" lengthAdjust="spacing" textLength="32.6758" x="97.418" y="79.5332">Actor</text><ellipse cx="116.7559" cy="13.5" fill="#E2E2F0" rx="8" ry="8" style="stroke:#181818;stroke-width:0.5;"/><path d="M116.7559,21.5 L116.7559,48.5 M103.7559,29.5 L129.7559,29.5 M116.7559,48.5 L103.7559,63.5 M116.7559,48.5 L129.7559,63.5" fill="none" style="stroke:#181818;stroke-width:0.5;"/></g><g class="participant participant-tail" data-participant="Foo1"><text fill="#000000" font-family="sans-serif" font-size="14" lengthAdjust="spacing" textLength="32.6758" x="97.418" y="328.6035">Actor</text><ellipse cx="116.7559" cy="340.1797" fill="#E2E2F0" rx="8" ry="8" style="stroke:#181818;stroke-width:0.5;"/><path d="M116.7559,348.1797 L116.7559,375.1797 M103.7559,356.1797 L129.7559,356.1797 M116.7559,375.1797 L103.7559,390.1797 M116.7559,375.1797 L129.7559,390.1797" fill="none" style="stroke:#181818;stroke-width:0.5;"/></g><g class="participant participant-head" data-participant="Foo2"><text fill="#000000" font-family="sans-serif" font-size="14" lengthAdjust="spacing" textLength="59.9307" x="146.0938" y="79.5332">Boundary</text><path d="M158.5591,37 L158.5591,61 M158.5591,49 L175.5591,49" fill="none" style="stroke:#181818;stroke-width:0.5;"/><ellipse cx="187.5591" cy="49" fill="#E2E2F0" rx="12" ry="12" style="stroke:#181818;stroke-width:0.5;"/></g><g class="participant participant-tail" data-participant="Foo2"><text fill="#000000" font-family="sans-serif" font-size="14" lengthAdjust="spacing" textLength="59.9307" x="146.0938" y="328.6035">Boundary</text><path d="M158.5591,335.6797 L158.5591,359.6797 M158.5591,347.6797 L175.5591,347.6797" fill="none" style="stroke:#181818;stroke-width:0.5;"/><ellipse cx="187.5591" cy="347.6797" fill="#E2E2F0" rx="12" ry="12" style="stroke:#181818;stroke-width:0.5;"/></g><g class="participant participant-head" data-participant="Foo3"><text fill="#000000" font-family="sans-serif" font-size="14" lengthAdjust="spacing" textLength="45.1309" x="222.0244" y="79.5332">Control</text><ellipse cx="247.5898" cy="49" fill="#E2E2F0" rx="12" ry="12" style="stroke:#181818;stroke-width:0.5;"/><polygon fill="#181818" points="243.5898,37,249.5898,32,247.5898,37,249.5898,42,243.5898,37" style="stroke:#181818;stroke-width:1;"/></g><g class="participant participant-tail" data-participant="Foo3"><text fill="#000000" font-family="sans-serif" font-size="14" lengthAdjust="spacing" textLength="45.1309" x="222.0244" y="328.6035">Control</text><ellipse cx="247.5898" cy="347.6797" fill="#E2E2F0" rx="12" ry="12" style="stroke:#181818;stroke-width:0.5;"/><polygon fill="#181818" points="243.5898,335.6797,249.5898,330.6797,247.5898,335.6797,249.5898,340.6797,243.5898,335.6797" style="stroke:#181818;stroke-width:1;"/></g><g class="participant participant-head" data-participant="Foo4"><text fill="#000000" font-family="sans-serif" font-size="14" lengthAdjust="spacing" textLength="35.0137" x="283.1553" y="79.5332">Entity</text><ellipse cx="303.6621" cy="49" fill="#E2E2F0" rx="12" ry="12" style="stroke:#181818;stroke-width:0.5;"/><line style="stroke:#181818;stroke-width:0.5;" x1="291.6621" x2="315.6621" y1="63" y2="63"/></g><g class="participant participant-tail" data-participant="Foo4"><text fill="#000000" font-family="sans-serif" font-size="14" lengthAdjust="spacing" textLength="35.0137" x="283.1553" y="328.6035">Entity</text><ellipse cx="303.6621" cy="347.6797" fill="#E2E2F0" rx="12" ry="12" style="stroke:#181818;stroke-width:0.5;"/><line style="stroke:#181818;stroke-width:0.5;" x1="291.6621" x2="315.6621" y1="361.6797" y2="361.6797"/></g><g class="participant participant-head" data-participant="Foo5"><text fill="#000000" font-family="sans-serif" font-size="14" lengthAdjust="spacing" textLength="59.9307" x="334.1689" y="79.5332">Database</text><path d="M349.1343,29 C349.1343,19 367.1343,19 367.1343,19 C367.1343,19 385.1343,19 385.1343,29 L385.1343,55 C385.1343,65 367.1343,65 367.1343,65 C367.1343,65 349.1343,65 349.1343,55 L349.1343,29" fill="#E2E2F0" style="stroke:#181818;stroke-width:0.5;"/><path d="M349.1343,29 C349.1343,39 367.1343,39 367.1343,39 C367.1343,39 385.1343,39 385.1343,29" fill="none" style="stroke:#181818;stroke-width:0.5;"/></g><g class="participant participant-tail" data-participant="Foo5"><text fill="#000000" font-family="sans-serif" font-size="14" lengthAdjust="spacing" textLength="59.9307" x="334.1689" y="328.6035">Database</text><path d="M349.1343,341.6797 C349.1343,331.6797 367.1343,331.6797 367.1343,331.6797 C367.1343,331.6797 385.1343,331.6797 385.1343,341.6797 L385.1343,367.6797 C385.1343,377.6797 367.1343,377.6797 367.1343,377.6797 C367.1343,377.6797 349.1343,377.6797 349.1343,367.6797 L349.1343,341.6797" fill="#E2E2F0" style="stroke:#181818;stroke-width:0.5;"/><path d="M349.1343,341.6797 C349.1343,351.6797 367.1343,351.6797 367.1343,351.6797 C367.1343,351.6797 385.1343,351.6797 385.1343,341.6797" fill="none" style="stroke:#181818;stroke-width:0.5;"/></g><g class="participant participant-head" data-participant="Foo6"><rect fill="#E2E2F0" height="31.6094" style="stroke:#181818;stroke-width:0.5;" width="82.4756" x="414.0996" y="46"/><rect fill="#E2E2F0" height="31.6094" style="stroke:#181818;stroke-width:0.5;" width="82.4756" x="410.0996" y="50"/><text fill="#000000" font-family="sans-serif" font-size="14" lengthAdjust="spacing" textLength="68.4756" x="417.0996" y="71.5332">Collections</text></g><g class="participant participant-tail" data-participant="Foo6"><rect fill="#E2E2F0" height="31.6094" style="stroke:#181818;stroke-width:0.5;" width="82.4756" x="414.0996" y="314.0703"/><rect fill="#E2E2F0" height="31.6094" style="stroke:#181818;stroke-width:0.5;" width="82.4756" x="410.0996" y="318.0703"/><text fill="#000000" font-family="sans-serif" font-size="14" lengthAdjust="spacing" textLength="68.4756" x="417.0996" y="339.6035">Collections</text></g><g class="participant participant-head" data-participant="Foo7"><path d="M511.5752,55 L563.6094,55 C568.6094,55 568.6094,68.8047 568.6094,68.8047 C568.6094,68.8047 568.6094,82.6094 563.6094,82.6094 L511.5752,82.6094 C506.5752,82.6094 506.5752,68.8047 506.5752,68.8047 C506.5752,68.8047 506.5752,55 511.5752,55" fill="#E2E2F0" style="stroke:#181818;stroke-width:0.5;"/><path d="M563.6094,55 C558.6094,55 558.6094,68.8047 558.6094,68.8047 C558.6094,82.6094 563.6094,82.6094 563.6094,82.6094" fill="none" style="stroke:#181818;stroke-width:0.5;"/><text fill="#000000" font-family="sans-serif" font-size="14" lengthAdjust="spacing" textLength="42.0342" x="511.5752" y="74.5332">Queue</text></g><g class="participant participant-tail" data-participant="Foo7"><path d="M511.5752,314.0703 L563.6094,314.0703 C568.6094,314.0703 568.6094,327.875 568.6094,327.875 C568.6094,327.875 568.6094,341.6797 563.6094,341.6797 L511.5752,341.6797 C506.5752,341.6797 506.5752,327.875 506.5752,327.875 C506.5752,327.875 506.5752,314.0703 511.5752,314.0703" fill="#E2E2F0" style="stroke:#181818;stroke-width:0.5;"/><path d="M563.6094,314.0703 C558.6094,314.0703 558.6094,327.875 558.6094,327.875 C558.6094,341.6797 563.6094,341.6797 563.6094,341.6797" fill="none" style="stroke:#181818;stroke-width:0.5;"/><text fill="#000000" font-family="sans-serif" font-size="14" lengthAdjust="spacing" textLength="42.0342" x="511.5752" y="333.6035">Queue</text></g><g class="message" data-participant-1="Foo" data-participant-2="Foo1"><polygon fill="#181818" points="104.7559,110.9609,114.7559,114.9609,104.7559,118.9609,108.7559,114.9609" style="stroke:#181818;stroke-width:1;"/><line style="stroke:#181818;stroke-width:1;" x1="45.0723" x2="110.7559" y1="114.9609" y2="114.9609"/><text fill="#000000" font-family="sans-serif" font-size="13" lengthAdjust="spacing" textLength="47.6836" x="52.0723" y="110.1045">To actor</text></g><g class="message" data-participant-1="Foo" data-participant-2="Foo2"><polygon fill="#181818" points="167.0591,141.3125,177.0591,145.3125,167.0591,149.3125,171.0591,145.3125" style="stroke:#181818;stroke-width:1;"/><line style="stroke:#181818;stroke-width:1;" x1="45.0723" x2="173.0591" y1="145.3125" y2="145.3125"/><text fill="#000000" font-family="sans-serif" font-size="13" lengthAdjust="spacing" textLength="72.9917" x="52.0723" y="140.4561">To boundary</text></g><g class="message" data-participant-1="Foo" data-participant-2="Foo3"><polygon fill="#181818" points="235.5898,171.6641,245.5898,175.6641,235.5898,179.6641,239.5898,175.6641" style="stroke:#181818;stroke-width:1;"/><line style="stroke:#181818;stroke-width:1;" x1="45.0723" x2="241.5898" y1="175.6641" y2="175.6641"/><text fill="#000000" font-family="sans-serif" font-size="13" lengthAdjust="spacing" textLength="57.8018" x="52.0723" y="170.8076">To control</text></g><g class="message" data-participant-1="Foo" data-participant-2="Foo4"><polygon fill="#181818" points="291.6621,202.0156,301.6621,206.0156,291.6621,210.0156,295.6621,206.0156" style="stroke:#181818;stroke-width:1;"/><line style="stroke:#181818;stroke-width:1;" x1="45.0723" x2="297.6621" y1="206.0156" y2="206.0156"/><text fill="#000000" font-family="sans-serif" font-size="13" lengthAdjust="spacing" textLength="49.8545" x="52.0723" y="201.1592">To entity</text></g><g class="message" data-participant-1="Foo" data-participant-2="Foo5"><polygon fill="#181818" points="355.1343,232.3672,365.1343,236.3672,355.1343,240.3672,359.1343,236.3672" style="stroke:#181818;stroke-width:1;"/><line style="stroke:#181818;stroke-width:1;" x1="45.0723" x2="361.1343" y1="236.3672" y2="236.3672"/><text fill="#000000" font-family="sans-serif" font-size="13" lengthAdjust="spacing" textLength="72.2744" x="52.0723" y="231.5107">To database</text></g><g class="message" data-participant-1="Foo" data-participant-2="Foo6"><polygon fill="#181818" points="441.3374,262.7188,451.3374,266.7188,441.3374,270.7188,445.3374,266.7188" style="stroke:#181818;stroke-width:1;"/><line style="stroke:#181818;stroke-width:1;" x1="45.0723" x2="447.3374" y1="266.7188" y2="266.7188"/><text fill="#000000" font-family="sans-serif" font-size="13" lengthAdjust="spacing" textLength="79.479" x="52.0723" y="261.8623">To collections</text></g><g class="message" data-participant-1="Foo" data-participant-2="Foo7"><polygon fill="#181818" points="525.5923,293.0703,535.5923,297.0703,525.5923,301.0703,529.5923,297.0703" style="stroke:#181818;stroke-width:1;"/><line style="stroke:#181818;stroke-width:1;" x1="45.0723" x2="531.5923" y1="297.0703" y2="297.0703"/><text fill="#000000" font-family="sans-serif" font-size="13" lengthAdjust="spacing" textLength="54.9326" x="52.0723" y="292.2139">To queue</text></g><!--SRC=[JOyx3eCm44Hxdy8NI1488AM8b6-TIBd0ObnOGbvYbeBR1nX8reKrcYUF_3fA4bpeA8fzgaozVJ0RSiB9ufnL1jwRceVOK1hdxg8oU6OSHqdSBc-kAeFdnaS9CcBphZBumJGaL5Flv-wcCdWnxRUjTn8uzjF-FuENvZFumQz_VgaCNfdfihlJucAFziqMmghFq6-YYkGWgw821m2ugRv0lpafKcvJFmC5guKj9by0]--></g></svg>