<svg xmlns="http://www.w3.org/2000/svg" xmlns:xlink="http://www.w3.org/1999/xlink" contentStyleType="text/css" data-diagram-type="SEQUENCE" height="387px" preserveAspectRatio="none" style="width:608px;height:387px;background:#FFFFFF;" version="1.1" viewBox="0 0 608 387" width="608px" zoomAndPan="magnify"><defs/><g><g><title>Participant</title><rect fill="#000000" fill-opacity="0.00000" height="225.1738" width="8" x="44.0835" y="81.4883"/><line style="stroke:#181818;stroke-width:0.5;stroke-dasharray:5,5;" x1="48" x2="48" y1="81.4883" y2="306.6621"/></g><g><title>Actor</title><rect fill="#000000" fill-opacity="0.00000" height="225.1738" width="8" x="120.4072" y="81.4883"/><line style="stroke:#181818;stroke-width:0.5;stroke-dasharray:5,5;" x1="124.21" x2="124.21" y1="81.4883" y2="306.6621"/></g><g><title>Boundary</title><rect fill="#000000" fill-opacity="0.00000" height="225.1738" width="8" x="186.4121" y="81.4883"/><line style="stroke:#181818;stroke-width:0.5;stroke-dasharray:5,5;" x1="189.6045" x2="189.6045" y1="81.4883" y2="306.6621"/></g><g><title>Control</title><rect fill="#000000" fill-opacity="0.00000" height="225.1738" width="8" x="259.5127" y="81.4883"/><line style="stroke:#181818;stroke-width:0.5;stroke-dasharray:5,5;" x1="263.2197" x2="263.2197" y1="81.4883" y2="306.6621"/></g><g><title>Entity</title><rect fill="#000000" fill-opacity="0.00000" height="225.1738" width="8" x="319.8608" y="81.4883"/><line style="stroke:#181818;stroke-width:0.5;stroke-dasharray:5,5;" x1="323.8057" x2="323.8057" y1="81.4883" y2="306.6621"/></g><g><title>Database</title><rect fill="#000000" fill-opacity="0.00000" height="225.1738" width="8" x="386.2485" y="81.4883"/><line style="stroke:#181818;stroke-width:0.5;stroke-dasharray:5,5;" x1="389.916" x2="389.916" y1="81.4883" y2="306.6621"/></g><g><title>Collections</title><rect fill="#000000" fill-opacity="0.00000" height="225.1738" width="8" x="477.1104" y="81.4883"/><line style="stroke:#181818;stroke-width:0.5;stroke-dasharray:5,5;" x1="480.5811" x2="480.5811" y1="81.4883" y2="306.6621"/></g><g><title>Queue</title><rect fill="#000000" fill-opacity="0.00000" height="225.1738" width="8" x="565.5659" y="81.4883"/><line style="stroke:#181818;stroke-width:0.5;stroke-dasharray:5,5;" x1="568.6396" x2="568.6396" y1="81.4883" y2="306.6621"/></g><g class="participant participant-head" data-participant="Foo"><rect fill="#E2E2F0" height="30.4883" rx="2.5" ry="2.5" style="stroke:#181818;stroke-width:0.5;" width="86.167" x="5" y="50"/><text fill="#000000" font-family="sans-serif" font-size="14" lengthAdjust="spacing" textLength="72.167" x="12" y="70.5352">Participant</text></g><g class="participant participant-tail" data-participant="Foo"><rect fill="#E2E2F0" height="30.4883" rx="2.5" ry="2.5" style="stroke:#181818;stroke-width:0.5;" width="86.167" x="5" y="305.6621"/><text fill="#000000" font-family="sans-serif" font-size="14" lengthAdjust="spacing" textLength="72.167" x="12" y="326.1973">Participant</text></g><g class="participant participant-head" data-participant="Foo1"><text fill="#000000" font-family="sans-serif" font-size="14" lengthAdjust="spacing" textLength="36.3945" x="103.21" y="78.5352">Actor</text><ellipse cx="124.4072" cy="13.5" fill="#E2E2F0" rx="8" ry="8" style="stroke:#181818;stroke-width:0.5;"/><path d="M124.4072,21.5 L124.4072,48.5 M111.4072,29.5 L137.4072,29.5 M124.4072,48.5 L111.4072,63.5 M124.4072,48.5 L137.4072,63.5" fill="none" style="stroke:#181818;stroke-width:0.5;"/></g><g class="participant participant-tail" data-participant="Foo1"><text fill="#000000" font-family="sans-serif" font-size="14" lengthAdjust="spacing" textLength="36.3945" x="103.21" y="319.1973">Actor</text><ellipse cx="124.4072" cy="330.6504" fill="#E2E2F0" rx="8" ry="8" style="stroke:#181818;stroke-width:0.5;"/><path d="M124.4072,338.6504 L124.4072,365.6504 M111.4072,346.6504 L137.4072,346.6504 M124.4072,365.6504 L111.4072,380.6504 M124.4072,365.6504 L137.4072,380.6504" fill="none" style="stroke:#181818;stroke-width:0.5;"/></g><g class="participant participant-head" data-participant="Foo2"><text fill="#000000" font-family="sans-serif" font-size="14" lengthAdjust="spacing" textLength="63.6152" x="155.6045" y="78.5352">Boundary</text><path d="M169.9121,37 L169.9121,61 M169.9121,49 L186.9121,49" fill="none" style="stroke:#181818;stroke-width:0.5;"/><ellipse cx="198.9121" cy="49" fill="#E2E2F0" rx="12" ry="12" style="stroke:#181818;stroke-width:0.5;"/></g><g class="participant participant-tail" data-participant="Foo2"><text fill="#000000" font-family="sans-serif" font-size="14" lengthAdjust="spacing" textLength="63.6152" x="155.6045" y="319.1973">Boundary</text><path d="M169.9121,326.1504 L169.9121,350.1504 M169.9121,338.1504 L186.9121,338.1504" fill="none" style="stroke:#181818;stroke-width:0.5;"/><ellipse cx="198.9121" cy="338.1504" fill="#E2E2F0" rx="12" ry="12" style="stroke:#181818;stroke-width:0.5;"/></g><g class="participant participant-head" data-participant="Foo3"><text fill="#000000" font-family="sans-serif" font-size="14" lengthAdjust="spacing" textLength="50.5859" x="235.2197" y="78.5352">Control</text><ellipse cx="263.5127" cy="49" fill="#E2E2F0" rx="12" ry="12" style="stroke:#181818;stroke-width:0.5;"/><polygon fill="#181818" points="259.5127,37,265.5127,32,263.5127,37,265.5127,42,259.5127,37" style="stroke:#181818;stroke-width:1;"/></g><g class="participant participant-tail" data-participant="Foo3"><text fill="#000000" font-family="sans-serif" font-size="14" lengthAdjust="spacing" textLength="50.5859" x="235.2197" y="319.1973">Control</text><ellipse cx="263.5127" cy="338.1504" fill="#E2E2F0" rx="12" ry="12" style="stroke:#181818;stroke-width:0.5;"/><polygon fill="#181818" points="259.5127,326.1504,265.5127,321.1504,263.5127,326.1504,265.5127,331.1504,259.5127,326.1504" style="stroke:#181818;stroke-width:1;"/></g><g class="participant participant-head" data-participant="Foo4"><text fill="#000000" font-family="sans-serif" font-size="14" lengthAdjust="spacing" textLength="38.1104" x="301.8057" y="78.5352">Entity</text><ellipse cx="323.8608" cy="49" fill="#E2E2F0" rx="12" ry="12" style="stroke:#181818;stroke-width:0.5;"/><line style="stroke:#181818;stroke-width:0.5;" x1="311.8608" x2="335.8608" y1="63" y2="63"/></g><g class="participant participant-tail" data-participant="Foo4"><text fill="#000000" font-family="sans-serif" font-size="14" lengthAdjust="spacing" textLength="38.1104" x="301.8057" y="319.1973">Entity</text><ellipse cx="323.8608" cy="338.1504" fill="#E2E2F0" rx="12" ry="12" style="stroke:#181818;stroke-width:0.5;"/><line style="stroke:#181818;stroke-width:0.5;" x1="311.8608" x2="335.8608" y1="352.1504" y2="352.1504"/></g><g class="participant participant-head" data-participant="Foo5"><text fill="#000000" font-family="sans-serif" font-size="14" lengthAdjust="spacing" textLength="62.665" x="355.916" y="78.5352">Database</text><path d="M372.2485,29 C372.2485,19 390.2485,19 390.2485,19 C390.2485,19 408.2485,19 408.2485,29 L408.2485,55 C408.2485,65 390.2485,65 390.2485,65 C390.2485,65 372.2485,65 372.2485,55 L372.2485,29" fill="#E2E2F0" style="stroke:#181818;stroke-width:0.5;"/><path d="M372.2485,29 C372.2485,39 390.2485,39 390.2485,39 C390.2485,39 408.2485,39 408.2485,29" fill="none" style="stroke:#181818;stroke-width:0.5;"/></g><g class="participant participant-tail" data-participant="Foo5"><text fill="#000000" font-family="sans-serif" font-size="14" lengthAdjust="spacing" textLength="62.665" x="355.916" y="319.1973">Database</text><path d="M372.2485,332.1504 C372.2485,322.1504 390.2485,322.1504 390.2485,322.1504 C390.2485,322.1504 408.2485,322.1504 408.2485,332.1504 L408.2485,358.1504 C408.2485,368.1504 390.2485,368.1504 390.2485,368.1504 C390.2485,368.1504 372.2485,368.1504 372.2485,358.1504 L372.2485,332.1504" fill="#E2E2F0" style="stroke:#181818;stroke-width:0.5;"/><path d="M372.2485,332.1504 C372.2485,342.1504 390.2485,342.1504 390.2485,342.1504 C390.2485,342.1504 408.2485,342.1504 408.2485,332.1504" fill="none" style="stroke:#181818;stroke-width:0.5;"/></g><g class="participant participant-head" data-participant="Foo6"><rect fill="#E2E2F0" height="30.4883" style="stroke:#181818;stroke-width:0.5;" width="89.0586" x="438.5811" y="46"/><rect fill="#E2E2F0" height="30.4883" style="stroke:#181818;stroke-width:0.5;" width="89.0586" x="434.5811" y="50"/><text fill="#000000" font-family="sans-serif" font-size="14" lengthAdjust="spacing" textLength="75.0586" x="441.5811" y="70.5352">Collections</text></g><g class="participant participant-tail" data-participant="Foo6"><rect fill="#E2E2F0" height="30.4883" style="stroke:#181818;stroke-width:0.5;" width="89.0586" x="438.5811" y="305.6621"/><rect fill="#E2E2F0" height="30.4883" style="stroke:#181818;stroke-width:0.5;" width="89.0586" x="434.5811" y="309.6621"/><text fill="#000000" font-family="sans-serif" font-size="14" lengthAdjust="spacing" textLength="75.0586" x="441.5811" y="330.1973">Collections</text></g><g class="participant participant-head" data-participant="Foo7"><path d="M542.6396,55 L596.4922,55 C601.4922,55 601.4922,68.2441 601.4922,68.2441 C601.4922,68.2441 601.4922,81.4883 596.4922,81.4883 L542.6396,81.4883 C537.6396,81.4883 537.6396,68.2441 537.6396,68.2441 C537.6396,68.2441 537.6396,55 542.6396,55" fill="#E2E2F0" style="stroke:#181818;stroke-width:0.5;"/><path d="M596.4922,55 C591.4922,55 591.4922,68.2441 591.4922,68.2441 C591.4922,81.4883 596.4922,81.4883 596.4922,81.4883" fill="none" style="stroke:#181818;stroke-width:0.5;"/><text fill="#000000" font-family="sans-serif" font-size="14" lengthAdjust="spacing" textLength="43.8525" x="542.6396" y="73.5352">Queue</text></g><g class="participant participant-tail" data-participant="Foo7"><path d="M542.6396,305.6621 L596.4922,305.6621 C601.4922,305.6621 601.4922,318.9063 601.4922,318.9063 C601.4922,318.9063 601.4922,332.1504 596.4922,332.1504 L542.6396,332.1504 C537.6396,332.1504 537.6396,318.9063 537.6396,318.9063 C537.6396,318.9063 537.6396,305.6621 542.6396,305.6621" fill="#E2E2F0" style="stroke:#181818;stroke-width:0.5;"/><path d="M596.4922,305.6621 C591.4922,305.6621 591.4922,318.9063 591.4922,318.9063 C591.4922,332.1504 596.4922,332.1504 596.4922,332.1504" fill="none" style="stroke:#181818;stroke-width:0.5;"/><text fill="#000000" font-family="sans-serif" font-size="14" lengthAdjust="spacing" textLength="43.8525" x="542.6396" y="324.1973">Queue</text></g><g class="message" data-participant-1="Foo" data-participant-2="Foo1"><polygon fill="#181818" points="112.4072,108.7988,122.4072,112.7988,112.4072,116.7988,116.4072,112.7988" style="stroke:#181818;stroke-width:1;"/><line style="stroke:#181818;stroke-width:1;" x1="48.0835" x2="118.4072" y1="112.7988" y2="112.7988"/><text fill="#000000" font-family="sans-serif" font-size="13" lengthAdjust="spacing" textLength="52.3237" x="55.0835" y="108.0566">To actor</text></g><g class="message" data-participant-1="Foo" data-participant-2="Foo2"><polygon fill="#181818" points="178.4121,138.1094,188.4121,142.1094,178.4121,146.1094,182.4121,142.1094" style="stroke:#181818;stroke-width:1;"/><line style="stroke:#181818;stroke-width:1;" x1="48.0835" x2="184.4121" y1="142.1094" y2="142.1094"/><text fill="#000000" font-family="sans-serif" font-size="13" lengthAdjust="spacing" textLength="80.0947" x="55.0835" y="137.3672">To boundary</text></g><g class="message" data-participant-1="Foo" data-participant-2="Foo3"><polygon fill="#181818" points="251.5127,167.4199,261.5127,171.4199,251.5127,175.4199,255.5127,171.4199" style="stroke:#181818;stroke-width:1;"/><line style="stroke:#181818;stroke-width:1;" x1="48.0835" x2="257.5127" y1="171.4199" y2="171.4199"/><text fill="#000000" font-family="sans-serif" font-size="13" lengthAdjust="spacing" textLength="64.9556" x="55.0835" y="166.6777">To control</text></g><g class="message" data-participant-1="Foo" data-participant-2="Foo4"><polygon fill="#181818" points="311.8608,196.7305,321.8608,200.7305,311.8608,204.7305,315.8608,200.7305" style="stroke:#181818;stroke-width:1;"/><line style="stroke:#181818;stroke-width:1;" x1="48.0835" x2="317.8608" y1="200.7305" y2="200.7305"/><text fill="#000000" font-family="sans-serif" font-size="13" lengthAdjust="spacing" textLength="55.9038" x="55.0835" y="195.9883">To entity</text></g><g class="message" data-participant-1="Foo" data-participant-2="Foo5"><polygon fill="#181818" points="378.2485,226.041,388.2485,230.041,378.2485,234.041,382.2485,230.041" style="stroke:#181818;stroke-width:1;"/><line style="stroke:#181818;stroke-width:1;" x1="48.0835" x2="384.2485" y1="230.041" y2="230.041"/><text fill="#000000" font-family="sans-serif" font-size="13" lengthAdjust="spacing" textLength="76.9526" x="55.0835" y="225.2988">To database</text></g><g class="message" data-participant-1="Foo" data-participant-2="Foo6"><polygon fill="#181818" points="469.1104,255.3516,479.1104,259.3516,469.1104,263.3516,473.1104,259.3516" style="stroke:#181818;stroke-width:1;"/><line style="stroke:#181818;stroke-width:1;" x1="48.0835" x2="475.1104" y1="259.3516" y2="259.3516"/><text fill="#000000" font-family="sans-serif" font-size="13" lengthAdjust="spacing" textLength="87.6802" x="55.0835" y="254.6094">To collections</text></g><g class="message" data-participant-1="Foo" data-participant-2="Foo7"><polygon fill="#181818" points="557.5659,284.6621,567.5659,288.6621,557.5659,292.6621,561.5659,288.6621" style="stroke:#181818;stroke-width:1;"/><line style="stroke:#181818;stroke-width:1;" x1="48.0835" x2="563.5659" y1="288.6621" y2="288.6621"/><text fill="#000000" font-family="sans-serif" font-size="13" lengthAdjust="spacing" textLength="59.1221" x="55.0835" y="283.9199">To queue</text></g><!--SRC=[JOyx3eCm44Hxdy8NI1488AM8b6-TIBd0ObnOGbvYbeBR1nX8reKrcYUF_3fA4bpeA8fzgaozVJ0RSiB9ufnL1jwRceVOK1hdxg8oU6OSHqdSBc-kAeFdnaS9CcBphZBumJGaL5Flv-wcCdWnxRUjTn8uzjF-FuENvZFumQz_VgaCNfdfihlJucAFziqMmghFq6-YYkGWgw821m2ugRv0lpafKcvJFmC5guKj9by0]--></g></svg>